<?xml version="1.0" standalone="no"?>
<!DOCTYPE svg PUBLIC "-//W3C//DTD SVG 20010904//EN"
 "http://www.w3.org/TR/2001/REC-SVG-20010904/DTD/svg10.dtd">
<svg version="1.0" xmlns="http://www.w3.org/2000/svg"
 width="256.000000pt" height="256.000000pt" viewBox="0 0 256.000000 256.000000"
 preserveAspectRatio="xMidYMid meet">

<g transform="translate(0.000000,256.000000) scale(0.100000,-0.100000)"
fill="#000000" stroke="none">
<path d="M146 2545 c-51 -18 -85 -44 -114 -85 l-22 -33 0 -906 c0 -874 1 -907
19 -937 23 -38 74 -77 120 -93 44 -14 1739 -16 1790 -1 43 12 90 44 116 79 19
25 20 44 23 482 l3 456 54 56 c30 31 55 61 55 66 0 6 -19 1 -42 -9 -60 -27
-68 -25 -68 13 0 32 4 36 75 71 44 22 96 58 125 87 51 51 65 77 33 64 -47 -21
-207 -75 -220 -75 -10 0 -13 10 -11 35 3 35 6 37 83 68 130 53 216 123 289
239 31 50 48 84 87 187 7 18 -5 10 -51 -30 -164 -145 -316 -252 -387 -274
l-23 -6 0 211 c0 228 -2 240 -57 292 -62 60 -35 58 -977 58 -713 -1 -868 -3
-900 -15z m1110 -185 c200 -51 382 -179 504 -355 l41 -60 -48 -7 c-26 -4 -129
-14 -228 -23 -288 -25 -445 -64 -524 -132 -56 -48 -54 -73 13 -192 53 -93 92
-198 83 -224 -2 -6 -56 67 -119 163 -134 202 -196 275 -266 313 -100 54 -181
46 -217 -23 -15 -28 -16 -29 -82 -24 -57 5 -73 2 -101 -16 -37 -23 -62 -72
-62 -121 0 -28 3 -31 23 -25 62 18 144 18 176 2 72 -38 97 -164 61 -319 -27
-116 -22 -176 20 -266 29 -60 89 -156 95 -149 1 2 -4 37 -11 78 -8 41 -18 181
-22 310 -9 248 -16 286 -64 337 -32 35 -98 55 -162 51 l-56 -3 0 32 c0 22 8
38 26 52 53 42 182 15 213 -43 16 -30 48 -41 87 -32 33 9 27 15 -38 38 -69 24
-94 48 -79 77 17 31 56 36 120 16 93 -29 147 -95 265 -321 54 -104 119 -220
145 -259 58 -89 161 -191 232 -230 74 -41 158 -41 244 -1 l60 29 -69 13 c-134
26 -256 103 -360 230 l-52 63 10 61 c7 43 6 85 -2 143 -22 150 -10 197 57 235
57 32 150 41 433 40 l257 0 10 -30 c6 -17 8 -35 4 -40 -4 -7 -47 -8 -122 -4
-64 3 -206 9 -316 12 -192 5 -201 5 -234 -16 -18 -11 -32 -23 -30 -25 8 -7
338 -64 434 -75 55 -6 144 -10 197 -8 105 3 108 2 108 -51 0 -27 -2 -28 -68
-34 -145 -14 -461 34 -639 97 l-42 15 5 -32 c8 -45 40 -70 136 -107 144 -56
249 -72 441 -68 l168 3 -6 -35 c-4 -19 -8 -36 -10 -38 -1 -2 -49 -6 -106 -9
-175 -10 -363 27 -527 102 l-74 35 7 -38 c8 -44 2 -40 134 -97 188 -83 378
-120 490 -96 30 6 56 10 58 7 10 -10 -61 -168 -106 -236 -193 -294 -534 -445
-869 -386 -285 50 -513 222 -638 481 -61 127 -76 188 -81 345 -4 114 -2 149
16 225 56 233 213 443 423 563 67 39 213 88 298 101 90 14 241 5 336 -19z"/>
<path d="M1190 1353 c0 -19 87 -109 153 -157 81 -59 145 -81 237 -81 75 0 91
3 138 29 88 49 86 54 -20 55 -131 0 -250 40 -500 169 -5 2 -8 -5 -8 -15z"/>
<path d="M10 240 c0 -18 4 -20 35 -14 l35 6 0 -111 0 -111 25 0 c24 0 24 1 27
108 l3 107 33 -3 c26 -2 32 2 32 18 0 19 -7 20 -95 20 -89 0 -95 -1 -95 -20z"/>
<path d="M252 237 c-41 -43 -27 -79 45 -117 38 -20 48 -31 48 -50 0 -24 -3
-25 -54 -25 -37 0 -56 -5 -59 -14 -12 -35 84 -43 136 -11 26 16 32 26 32 54 0
40 -21 65 -80 91 -26 12 -40 25 -40 36 0 22 38 34 74 25 21 -5 36 7 36 30 0 2
-26 4 -58 4 -48 0 -62 -4 -80 -23z"/>
<path d="M450 135 l0 -125 80 0 c74 0 80 1 80 21 0 18 -5 20 -52 18 l-53 -3
-3 107 c-3 106 -3 107 -27 107 l-25 0 0 -125z"/>
<path d="M830 240 c-41 -41 -21 -89 50 -125 81 -41 58 -87 -36 -72 -28 5 -34
3 -34 -13 0 -55 152 -31 166 26 10 40 -14 75 -69 102 -32 15 -47 28 -47 42 0
23 37 35 75 26 20 -5 25 -3 25 14 0 18 -6 20 -55 20 -42 0 -60 -5 -75 -20z"/>
<path d="M1030 135 l0 -125 25 0 25 0 0 125 0 125 -25 0 -25 0 0 -125z"/>
<path d="M1140 135 l0 -125 80 0 c73 0 80 2 80 20 0 18 -7 20 -57 20 l-58 0 3
105 3 105 -25 0 -26 0 0 -125z"/>
<path d="M1335 135 l-1 -125 83 0 c77 0 83 1 83 21 0 19 -5 20 -57 18 l-58 -3
-3 37 -3 37 45 0 c39 0 46 3 46 20 0 17 -7 20 -46 20 -45 0 -45 0 -42 33 3 31
4 32 53 32 39 0 50 4 53 18 3 15 -6 17 -75 17 l-78 0 0 -125z"/>
<path d="M1560 242 c-25 -20 -30 -63 -9 -88 7 -8 29 -24 49 -34 52 -26 66 -46
49 -66 -10 -12 -25 -15 -61 -12 -36 4 -48 1 -53 -10 -8 -21 12 -32 60 -32 51
0 87 18 103 52 19 40 1 73 -57 102 -58 30 -67 41 -50 63 10 11 24 14 56 9 38
-5 43 -3 43 14 0 17 -7 20 -54 20 -37 0 -61 -6 -76 -18z"/>
<path d="M1754 135 c0 -124 0 -125 23 -125 23 0 23 1 23 125 0 123 0 125 -23
125 -22 0 -23 -2 -23 -125z"/>
<path d="M1890 148 c-24 -62 -45 -119 -48 -126 -3 -10 3 -13 24 -10 22 2 30
10 36 36 8 31 11 32 58 32 48 0 49 -1 56 -35 5 -30 10 -35 35 -35 16 0 29 3
29 7 0 3 -19 59 -41 125 -42 118 -42 118 -74 118 -32 0 -32 -1 -75 -112z m84
45 c3 -16 8 -38 12 -50 6 -21 3 -23 -29 -23 l-35 0 16 50 c18 57 27 62 36 23z"/>
<path d="M2284 160 c-26 -10 -54 -48 -54 -72 0 -9 11 -29 23 -44 47 -55 127
-26 127 46 0 54 -48 89 -96 70z m70 -26 c9 -8 16 -28 16 -44 0 -38 -24 -60
-64 -60 -40 0 -59 20 -59 60 0 16 5 36 13 44 16 21 74 20 94 0z"/>
<path d="M2281 88 c1 -24 3 -35 6 -25 5 21 22 22 29 2 4 -8 10 -15 15 -15 6 0
6 8 0 18 -7 13 -7 22 1 30 15 15 1 32 -28 32 -22 0 -24 -4 -23 -42z m39 17 c0
-8 -7 -15 -15 -15 -8 0 -15 7 -15 15 0 8 7 15 15 15 8 0 15 -7 15 -15z"/>
</g>
</svg>
